<svg height="512pt" viewBox="0 0 512 512" width="512pt" xmlns="http://www.w3.org/2000/svg"><path d="m295.101562 0c32.585938 0 64.882813 10.765625 90.933594 30.308594 14.53125 10.890625 27.859375 20.894531 27.859375 20.894531 6.625 4.972656 7.964844 14.375 2.996094 21-4.976563 6.625-47.175781 46.226563-63.699219 29.707031 0 0-5.492187-3.894531-12.257812-8.699218-13.835938-9.820313-28.855469-15.011719-45.835938-15.011719-21.59375 0-39.097656-17.503907-39.097656-39.097657s17.507812-39.101562 39.101562-39.101562zm0 0" fill="#00eccf"/><path d="m216.898438 0c-32.585938 0-64.882813 10.765625-90.933594 30.308594-14.53125 10.890625-27.859375 20.894531-27.859375 20.894531-6.625 4.972656-7.964844 14.375-2.996094 21 4.976563 6.625 47.175781 46.226563 63.699219 29.707031 0 0 5.492187-3.894531 12.257812-8.699218 13.835938-9.820313 28.855469-15.011719 45.835938-15.011719 21.59375 0 39.097656-17.503907 39.097656-39.097657s-17.507812-39.101562-39.101562-39.101562zm0 0" fill="#ffcc01"/><path d="m216.898438 512c-32.585938 0-64.882813-10.765625-90.933594-30.308594-14.53125-10.890625-27.859375-20.894531-27.859375-20.894531-6.625-4.972656-7.964844-14.375-2.996094-21 4.976563-6.625 47.175781-46.226563 63.699219-29.707031 0 0 5.492187 3.894531 12.257812 8.699218 13.835938 9.820313 28.855469 15.011719 45.835938 15.011719 21.59375 0 39.097656 17.503907 39.097656 39.097657s-17.507812 39.101562-39.101562 39.101562zm0 0" fill="#00347b"/><path d="m295.101562 512c32.585938 0 64.882813-10.765625 90.933594-30.308594 14.53125-10.890625 27.859375-20.894531 27.859375-20.894531 6.625-4.972656 7.964844-14.375 2.996094-21-4.976563-6.625-47.175781-46.226563-63.699219-29.707031 0 0-5.492187 3.894531-12.257812 8.699218-13.835938 9.820313-28.855469 15.011719-45.835938 15.011719-21.59375 0-39.097656 17.503907-39.097656 39.097657s17.507812 39.101562 39.101562 39.101562zm0 0" fill="#ff5e91"/><path d="m512 216.898438c0-32.585938-10.765625-64.882813-30.308594-90.933594-10.890625-14.53125-20.894531-27.859375-20.894531-27.859375-4.972656-6.625-14.375-7.964844-21-2.996094-6.625 4.976563-46.226563 47.175781-29.707031 63.699219 0 0 3.894531 5.492187 8.699218 12.257812 9.820313 13.835938 15.011719 28.855469 15.011719 45.835938 0 21.59375 17.503907 39.097656 39.097657 39.097656s39.101562-17.507812 39.101562-39.101562zm0 0" fill="#00cab1"/><path d="m512 295.101562c0 32.585938-10.765625 64.882813-30.308594 90.933594-10.890625 14.53125-20.894531 27.859375-20.894531 27.859375-4.972656 6.625-14.375 7.964844-21 2.996094-6.625-4.976563-46.226563-47.175781-29.707031-63.699219 0 0 3.894531-5.492187 8.699218-12.257812 9.820313-13.835938 15.011719-28.855469 15.011719-45.835938 0-21.59375 17.503907-39.097656 39.097657-39.097656s39.101562 17.507812 39.101562 39.101562zm0 0" fill="#cf0050"/><path d="m0 216.898438c0-32.585938 10.765625-64.882813 30.308594-90.933594 10.890625-14.53125 20.894531-27.859375 20.894531-27.859375 4.972656-6.625 14.375-7.964844 21-2.996094 6.625 4.976563 46.226563 47.175781 29.707031 63.699219 0 0-3.894531 5.492187-8.699218 12.257812-9.820313 13.835938-15.011719 28.855469-15.011719 45.835938 0 21.59375-17.503907 39.097656-39.097657 39.097656s-39.101562-17.507812-39.101562-39.101562zm0 0" fill="#fff36e"/><path d="m0 295.101562c0 32.585938 10.765625 64.882813 30.308594 90.933594 10.890625 14.53125 20.894531 27.859375 20.894531 27.859375 4.972656 6.625 14.375 7.964844 21 2.996094 6.625-4.976563 46.226563-47.175781 29.707031-63.699219 0 0-3.894531-5.492187-8.699218-12.257812-9.820313-13.835938-15.011719-28.855469-15.011719-45.835938 0-21.59375-17.503907-39.097656-39.097657-39.097656s-39.101562 17.507812-39.101562 39.101562zm0 0" fill="#0051bd"/><path d="m107.398438 170.601562c-34.847657 0-63.199219-28.355468-63.199219-63.203124 0-34.847657 28.351562-63.199219 63.199219-63.199219 34.851562 0 63.203124 28.351562 63.203124 63.199219 0 34.851562-28.355468 63.203124-63.203124 63.203124zm0 0" fill="#ffece3"/><path d="m107.398438 44.199219v126.402343c34.847656 0 63.203124-28.355468 63.203124-63.203124 0-34.847657-28.355468-63.199219-63.203124-63.199219zm0 0" fill="#ffdccd"/><path d="m404.601562 170.601562c-34.847656 0-63.203124-28.355468-63.203124-63.203124 0-34.847657 28.355468-63.199219 63.203124-63.199219 34.847657 0 63.199219 28.351562 63.199219 63.199219 0 34.851562-28.351562 63.203124-63.199219 63.203124zm0 0" fill="#e8afa3"/><path d="m404.601562 44.199219v126.402343c34.847657 0 63.199219-28.355468 63.199219-63.203124 0-34.847657-28.351562-63.199219-63.199219-63.199219zm0 0" fill="#d19188"/><path d="m107.398438 467.800781c-34.847657 0-63.199219-28.351562-63.199219-63.199219 0-34.847656 28.351562-63.203124 63.199219-63.203124 34.851562 0 63.203124 28.355468 63.203124 63.203124 0 34.847657-28.355468 63.199219-63.203124 63.199219zm0 0" fill="#ffece3"/><path d="m107.398438 341.398438v126.402343c34.847656 0 63.203124-28.351562 63.203124-63.199219 0-34.847656-28.355468-63.203124-63.203124-63.203124zm0 0" fill="#ffdccd"/><path d="m404.601562 467.800781c-34.847656 0-63.203124-28.351562-63.203124-63.199219 0-34.847656 28.355468-63.203124 63.203124-63.203124 34.847657 0 63.199219 28.355468 63.199219 63.203124 0 34.847657-28.351562 63.199219-63.199219 63.199219zm0 0" fill="#e8afa3"/><path d="m404.601562 341.398438v126.402343c34.847657 0 63.199219-28.351562 63.199219-63.199219 0-34.847656-28.351562-63.203124-63.199219-63.203124zm0 0" fill="#d19188"/><path d="m256.023438 367.398438c-3.839844 0-7.675782-1.460938-10.605469-4.390626l-80.074219-80.078124c-27.929688-27.925782-27.929688-73.371094 0-101.296876 24.617188-24.617187 62.839844-27.535156 90.679688-8.75 27.84375-18.785156 66.074218-15.867187 90.691406 8.75 27.929687 27.929688 27.929687 73.371094 0 101.296876l-80.085938 80.078124c-2.929687 2.929688-6.765625 4.390626-10.605468 4.390626zm0 0" fill="#ff5e91"/><path d="m266.628906 363.007812 80.085938-80.078124c27.929687-27.925782 27.929687-73.371094 0-101.296876-24.617188-24.617187-62.847656-27.535156-90.691406-8.75v194.515626c3.839843 0 7.675781-1.464844 10.605468-4.390626zm0 0" fill="#cf0050"/></svg>