<?xml version="1.0" encoding="iso-8859-1"?>
<!-- Generator: Adobe Illustrator 19.0.0, SVG Export Plug-In . SVG Version: 6.00 Build 0)  -->
<svg version="1.1" id="Capa_1" xmlns="http://www.w3.org/2000/svg" xmlns:xlink="http://www.w3.org/1999/xlink" x="0px" y="0px"
	 viewBox="0 0 512 512" style="enable-background:new 0 0 512 512;" xml:space="preserve">
<circle style="fill:#FF6838;" cx="256" cy="256" r="256"/>
<path style="fill:#AE4E32;" d="M188.693,243.359l218.918,218.918C470.915,415.672,512,340.639,512,256
	c0-0.943-0.026-1.88-0.036-2.82L334.789,90.432L188.693,243.359z"/>
<path style="fill:#FFDC00;" d="M257.994,495.806h-3.989c-62.245,0-112.704-50.459-112.704-112.704V172.871
	c0-62.245,50.459-112.704,112.704-112.704h3.989c62.245,0,112.704,50.459,112.704,112.704v210.231
	C370.699,445.347,320.239,495.806,257.994,495.806z"/>
<path style="fill:#FFC000;" d="M257.994,60.167h-2.328v435.64h2.328c62.245,0,112.704-50.459,112.704-112.705v-210.23
	C370.699,110.626,320.239,60.167,257.994,60.167z"/>
<circle style="fill:#EFD48F;" cx="155.86" cy="243.98" r="28.808"/>
<circle style="fill:#E7C46B;" cx="356.14" cy="243.98" r="28.808"/>
<path style="fill:#FFF0CC;" d="M460.799,409.616l-8.525-17.542l-152.978-37.523v-30.788h-86.591v30.788L59.726,392.075
	l-8.525,17.542C97.907,471.784,172.255,512,256,512S414.093,471.785,460.799,409.616z"/>
<path style="fill:#DBC69C;" d="M452.274,392.075l-152.978-37.523v-30.788h-43.629v188.234c0.111,0,0.222,0.002,0.333,0.002
	c83.745,0,158.093-40.215,204.799-102.384L452.274,392.075z"/>
<path style="fill:#FFECB3;" d="M257.741,342.181h-3.482c-54.346,0-98.402-44.056-98.402-98.402V168.39
	c0-54.346,44.056-98.402,98.402-98.402h3.482c54.346,0,98.402,44.056,98.402,98.402v75.389
	C356.143,298.125,312.087,342.181,257.741,342.181z"/>
<path style="fill:#E8D3A0;" d="M256,72.988L256,72.988c-0.112,0-0.222,0.004-0.333,0.004V342.18h2.074
	c54.346,0,98.402-44.056,98.402-98.402V169.68C356.143,116.278,311.308,72.988,256,72.988z"/>
<circle style="fill:#1D384E;" cx="300.02" cy="240.55" r="10.803"/>
<circle style="fill:#1E495F;" cx="211.98" cy="240.55" r="10.803"/>
<path style="fill:#FFDC00;" d="M358.5,166.576c0-54.658-45.891-98.967-102.5-98.967c-27.73,0-52.883,10.636-71.335,27.909V84.221
	c-26.416,20.286-43.364,51.569-43.364,86.691l0.055,39.588h145.433v-51.854l21.172,51.854H358.5V166.576z"/>
<path style="fill:#FFC000;" d="M256,67.609c-0.111,0-0.222,0.004-0.333,0.004V210.5h31.122v-51.854l21.172,51.854H358.5v-43.924
	C358.5,111.918,312.609,67.609,256,67.609z"/>
<path style="fill:#F1333F;" d="M255.667,303c-16.818,0-30.5-13.682-30.5-30.5h12c0,10.201,8.299,18.5,18.5,18.5
	s18.5-8.299,18.5-18.5h12C286.167,289.318,272.485,303,255.667,303z"/>
<path style="fill:#AE283F;" d="M255.667,291c10.201,0,18.5-8.299,18.5-18.5h12c0,16.818-13.682,30.5-30.5,30.5L255.667,291
	L255.667,291z"/>
<path style="fill:#FFFFFF;" d="M452.274,392.075l-139.6-34.242c-11.57,19.205-32.62,32.053-56.674,32.053
	s-45.104-12.848-56.674-32.053l-139.6,34.242l-8.525,17.542C97.907,471.784,172.255,512,256,512s158.093-40.215,204.799-102.384
	L452.274,392.075z"/>
<path style="fill:#E0E0E0;" d="M256,512c83.745,0,158.093-40.215,204.799-102.384l-8.525-17.542l-139.6-34.242
	c-11.57,19.205-32.62,32.053-56.674,32.053V512z"/>
<polygon style="fill:#FF7056;" points="386.946,410.823 367.659,410.823 367.659,391.536 348.372,391.536 348.372,410.823 
	329.085,410.823 329.085,430.11 348.372,430.11 348.372,449.397 367.659,449.397 367.659,430.11 386.946,430.11 "/>
<polygon style="fill:#FF533C;" points="367.659,410.823 367.659,391.536 357.365,391.536 357.365,449.397 367.659,449.397 
	367.659,430.11 386.946,430.11 386.946,410.823 "/>
<g>
</g>
<g>
</g>
<g>
</g>
<g>
</g>
<g>
</g>
<g>
</g>
<g>
</g>
<g>
</g>
<g>
</g>
<g>
</g>
<g>
</g>
<g>
</g>
<g>
</g>
<g>
</g>
<g>
</g>
</svg>
