<?xml version="1.0" encoding="utf-8"?>
<!-- Generator: Adobe Illustrator 23.0.3, SVG Export Plug-In . SVG Version: 6.00 Build 0)  -->
<svg version="1.1" xmlns="http://www.w3.org/2000/svg" xmlns:xlink="http://www.w3.org/1999/xlink" x="0px" y="0px"
	 viewBox="0 0 1166 264" style="enable-background:new 0 0 1166 264;" xml:space="preserve">
<style type="text/css">
	.st0{fill:#90B92F;}
	.st1{fill:#F2E668;}
	.st2{fill:#4598CD;}
</style>
<g id="N_Final">
	<polygon class="st0" points="1097.82,34.04 1097.82,144.72 1026.33,34.04 966.57,34.04 966.57,251.56 1027.47,251.56 
		1027.47,141.96 1098.69,251.56 1159,251.56 1159,34.04 	"/>
</g>
<g id="U">
	<path class="st1" d="M872.11,167.86c0,3.73-0.77,7.2-2.28,10.32c-1.54,3.16-3.62,5.93-6.17,8.23c-2.56,2.31-5.56,4.13-8.9,5.42
		c-6.53,2.51-14.36,2.63-21.21,0c-3.34-1.28-6.34-3.11-8.91-5.42c-2.56-2.3-4.63-5.07-6.17-8.22c-1.52-3.12-2.29-6.59-2.29-10.32
		V34.04h-63.31v137.4c0,9.91,1.66,19.4,4.94,28.21c3.27,8.79,7.92,16.85,13.82,23.96c5.88,7.1,12.93,13.3,20.96,18.43
		c7.99,5.12,16.77,9.13,26.06,11.92c4.12,1.31,8.32,2.35,12.5,3.09c4.24,0.75,8.57,1.13,12.86,1.13c4.29,0,8.66-0.38,12.99-1.13
		c4.27-0.74,8.52-1.78,12.61-3.08c9.33-2.8,18.1-6.81,26.09-11.93c8.02-5.13,15.07-11.32,20.96-18.43
		c5.89-7.11,10.54-15.17,13.81-23.96c3.28-8.81,4.94-18.3,4.94-28.21V34.04h-63.31V167.86z"/>
</g>
<g id="K">
	<polygon class="st2" points="652.47,34.04 597.36,101.57 597.36,34.04 535.69,34.04 535.69,248.73 597.36,248.73 597.36,181.2 
		652.47,248.73 725.63,248.73 640.84,135.76 728.7,34.04 	"/>
</g>
<g id="A">
	<path class="st0" d="M404.45,35.97l-69.28,0L230.12,250.66h84.06l14.38-29.08l82.48,0l14.38,29.08l84.07,0L405.05,37.2
		L404.45,35.97z M388.57,168.61h-37.51l18.91-47.26L388.57,168.61z"/>
	<path class="st0" d="M396.93,10.3h-54.25c-1.53,0-2.77,1.3-2.77,2.89v13.97c0,1.6,1.24,2.89,2.77,2.89h54.25
		c1.53,0,2.77-1.3,2.77-2.89V13.19C399.7,11.59,398.46,10.3,396.93,10.3z"/>
</g>
<g id="N">
	<polygon class="st1" points="138.15,147.05 67.72,38.02 8.84,38.02 8.84,252.31 68.85,252.31 68.85,144.33 139.01,252.31 
		198.42,252.31 198.42,38.02 138.15,38.02 	"/>
</g>
</svg>
